<svg width="45" height="41" viewBox="0 0 45 41" fill="none" xmlns="http://www.w3.org/2000/svg">
<path d="M45 10.6562V35.9688C45 38.2979 43.1104 40.1875 40.7812 40.1875H4.21875C1.88965 40.1875 0 38.2979 0 35.9688V10.6562C0 8.32715 1.88965 6.4375 4.21875 6.4375H11.9531L13.0342 3.5459C13.6494 1.90234 15.2227 0.8125 16.9805 0.8125H28.0107C29.7686 0.8125 31.3418 1.90234 31.957 3.5459L33.0469 6.4375H40.7812C43.1104 6.4375 45 8.32715 45 10.6562ZM33.0469 23.3125C33.0469 17.4941 28.3184 12.7656 22.5 12.7656C16.6816 12.7656 11.9531 17.4941 11.9531 23.3125C11.9531 29.1309 16.6816 33.8594 22.5 33.8594C28.3184 33.8594 33.0469 29.1309 33.0469 23.3125ZM30.2344 23.3125C30.2344 27.5752 26.7627 31.0469 22.5 31.0469C18.2373 31.0469 14.7656 27.5752 14.7656 23.3125C14.7656 19.0498 18.2373 15.5781 22.5 15.5781C26.7627 15.5781 30.2344 19.0498 30.2344 23.3125Z" fill="black"/>
</svg>
