<svg width="26" height="18" viewBox="0 0 26 18" fill="none" xmlns="http://www.w3.org/2000/svg">
<path d="M25.8429 8.34113C23.395 3.56499 18.5489 0.333496 13 0.333496C7.45105 0.333496 2.60359 3.56725 0.157059 8.34159C0.0537998 8.54584 0 8.77151 0 9.00039C0 9.22926 0.0537998 9.45493 0.157059 9.65919C2.60494 14.4353 7.45105 17.6668 13 17.6668C18.5489 17.6668 23.3964 14.4331 25.8429 9.65874C25.9462 9.45448 26 9.22881 26 8.99994C26 8.77106 25.9462 8.54539 25.8429 8.34113ZM13 15.5002C11.7144 15.5002 10.4577 15.1189 9.38877 14.4047C8.31985 13.6905 7.48673 12.6753 6.99476 11.4876C6.50279 10.2999 6.37407 8.99295 6.62487 7.73208C6.87567 6.4712 7.49474 5.31301 8.40378 4.40397C9.31282 3.49493 10.471 2.87586 11.7319 2.62506C12.9928 2.37425 14.2997 2.50298 15.4874 2.99495C16.6751 3.48692 17.6903 4.32004 18.4045 5.38896C19.1188 6.45787 19.5 7.71458 19.5 9.00016C19.5004 9.85387 19.3325 10.6993 19.006 11.4881C18.6795 12.2769 18.2008 12.9936 17.5971 13.5973C16.9934 14.2009 16.2767 14.6797 15.4879 15.0062C14.6991 15.3327 13.8537 15.5006 13 15.5002ZM13 4.66683C12.6132 4.67223 12.2289 4.72978 11.8575 4.8379C12.1637 5.25394 12.3106 5.76591 12.2716 6.28097C12.2326 6.79603 12.0104 7.28007 11.6451 7.64532C11.2799 8.01056 10.7958 8.23282 10.2808 8.27178C9.76572 8.31075 9.25375 8.16384 8.83772 7.8577C8.60081 8.7305 8.64358 9.65561 8.95999 10.5028C9.2764 11.3501 9.85053 12.0767 10.6016 12.5806C11.3526 13.0844 12.2427 13.34 13.1467 13.3115C14.0506 13.2829 14.9228 12.9716 15.6405 12.4214C16.3583 11.8711 16.8854 11.1097 17.1477 10.2442C17.41 9.37868 17.3943 8.45271 17.1028 7.5966C16.8113 6.74049 16.2586 5.99736 15.5226 5.4718C14.7866 4.94623 13.9044 4.6647 13 4.66683Z" fill="black"/>
</svg>
